<svg width="524" height="176" viewBox="0 0 524 176" fill="none" xmlns="http://www.w3.org/2000/svg">
<path d="M2.8 51V15H10.05L23.1 30.55L36.1 15H43.4V51H36.75V24.6L23.1 40.85L9.4 24.65V51H2.8ZM55.8367 51C54.5701 51 53.4201 50.6833 52.3867 50.05C51.3534 49.4167 50.5201 48.5833 49.8867 47.55C49.2534 46.5167 48.9367 45.3667 48.9367 44.1V28.9C48.9367 27.6333 49.2534 26.4833 49.8867 25.45C50.5201 24.4167 51.3534 23.5833 52.3867 22.95C53.4201 22.3167 54.5701 22 55.8367 22H71.4867C72.7534 22 73.9034 22.3167 74.9367 22.95C76.0034 23.5833 76.8367 24.4167 77.4367 25.45C78.0701 26.4833 78.3867 27.6333 78.3867 28.9V39.8H55.4867V43.85C55.4867 44.0167 55.5367 44.1667 55.6367 44.3C55.7701 44.4 55.9201 44.45 56.0867 44.45H78.3867V51H55.8367ZM55.4867 33.9H71.8367V29.15C71.8367 28.9833 71.7701 28.85 71.6367 28.75C71.5367 28.6167 71.4034 28.55 71.2367 28.55H56.0867C55.9201 28.55 55.7701 28.6167 55.6367 28.75C55.5367 28.85 55.4867 28.9833 55.4867 29.15V33.9ZM90.5559 51C89.2892 51 88.1392 50.6833 87.1059 50.05C86.0725 49.4167 85.2392 48.5833 84.6059 47.55C83.9725 46.5167 83.6559 45.3667 83.6559 44.1V13.1H90.2059V22H101.506V28.55H90.2059V43.85C90.2059 44.0167 90.2559 44.1667 90.3559 44.3C90.4892 44.4 90.6392 44.45 90.8059 44.45H101.506V51H90.5559ZM113.455 51C112.188 51 111.022 50.6833 109.955 50.05C108.922 49.4167 108.088 48.5833 107.455 47.55C106.855 46.5167 106.555 45.3667 106.555 44.1V33.2H129.455V29.15C129.455 28.9833 129.388 28.85 129.255 28.75C129.155 28.6167 129.022 28.55 128.855 28.55H106.555V22H129.105C130.372 22 131.522 22.3167 132.555 22.95C133.622 23.5833 134.455 24.4167 135.055 25.45C135.688 26.4833 136.005 27.6333 136.005 28.9V51H113.455ZM113.705 44.45H129.455V39.1H113.105V43.85C113.105 44.0167 113.155 44.1667 113.255 44.3C113.388 44.4 113.538 44.45 113.705 44.45ZM161.272 51L140.422 15H148.122L164.222 43L180.372 15H188.022L167.172 51H161.272Z" fill="url(#paint0_linear_1_141)"/>
<path d="M8.802 104.21H3.33L2.322 107H0.594L5.13 94.526H7.02L11.538 107H9.81L8.802 104.21ZM8.334 102.878L6.066 96.542L3.798 102.878H8.334ZM12.9029 102.032C12.9029 101.024 13.1069 100.142 13.5149 99.386C13.9229 98.618 14.4809 98.024 15.1889 97.604C15.9089 97.184 16.7129 96.974 17.6009 96.974C18.3689 96.974 19.0829 97.154 19.7429 97.514C20.4029 97.862 20.9069 98.324 21.2549 98.9V93.68H22.9109V107H21.2549V105.146C20.9309 105.734 20.4509 106.22 19.8149 106.604C19.1789 106.976 18.4349 107.162 17.5829 107.162C16.7069 107.162 15.9089 106.946 15.1889 106.514C14.4809 106.082 13.9229 105.476 13.5149 104.696C13.1069 103.916 12.9029 103.028 12.9029 102.032ZM21.2549 102.05C21.2549 101.306 21.1049 100.658 20.8049 100.106C20.5049 99.554 20.0969 99.134 19.5809 98.846C19.0769 98.546 18.5189 98.396 17.9069 98.396C17.2949 98.396 16.7369 98.54 16.2329 98.828C15.7289 99.116 15.3269 99.536 15.0269 100.088C14.7269 100.64 14.5769 101.288 14.5769 102.032C14.5769 102.788 14.7269 103.448 15.0269 104.012C15.3269 104.564 15.7289 104.99 16.2329 105.29C16.7369 105.578 17.2949 105.722 17.9069 105.722C18.5189 105.722 19.0769 105.578 19.5809 105.29C20.0969 104.99 20.5049 104.564 20.8049 104.012C21.1049 103.448 21.2549 102.794 21.2549 102.05ZM26.525 95.534C26.213 95.534 25.949 95.426 25.733 95.21C25.517 94.994 25.409 94.73 25.409 94.418C25.409 94.106 25.517 93.842 25.733 93.626C25.949 93.41 26.213 93.302 26.525 93.302C26.825 93.302 27.077 93.41 27.281 93.626C27.497 93.842 27.605 94.106 27.605 94.418C27.605 94.73 27.497 94.994 27.281 95.21C27.077 95.426 26.825 95.534 26.525 95.534ZM27.317 97.136V107H25.679V97.136H27.317ZM31.7467 98.954C32.0707 98.39 32.5507 97.922 33.1867 97.55C33.8347 97.166 34.5847 96.974 35.4367 96.974C36.3127 96.974 37.1047 97.184 37.8127 97.604C38.5327 98.024 39.0967 98.618 39.5047 99.386C39.9127 100.142 40.1167 101.024 40.1167 102.032C40.1167 103.028 39.9127 103.916 39.5047 104.696C39.0967 105.476 38.5327 106.082 37.8127 106.514C37.1047 106.946 36.3127 107.162 35.4367 107.162C34.5967 107.162 33.8527 106.976 33.2047 106.604C32.5687 106.22 32.0827 105.746 31.7467 105.182V111.68H30.1087V97.136H31.7467V98.954ZM38.4427 102.032C38.4427 101.288 38.2927 100.64 37.9927 100.088C37.6927 99.536 37.2847 99.116 36.7687 98.828C36.2647 98.54 35.7067 98.396 35.0947 98.396C34.4947 98.396 33.9367 98.546 33.4207 98.846C32.9167 99.134 32.5087 99.56 32.1967 100.124C31.8967 100.676 31.7467 101.318 31.7467 102.05C31.7467 102.794 31.8967 103.448 32.1967 104.012C32.5087 104.564 32.9167 104.99 33.4207 105.29C33.9367 105.578 34.4947 105.722 35.0947 105.722C35.7067 105.722 36.2647 105.578 36.7687 105.29C37.2847 104.99 37.6927 104.564 37.9927 104.012C38.2927 103.448 38.4427 102.788 38.4427 102.032ZM43.1187 95.534C42.8067 95.534 42.5427 95.426 42.3267 95.21C42.1107 94.994 42.0027 94.73 42.0027 94.418C42.0027 94.106 42.1107 93.842 42.3267 93.626C42.5427 93.41 42.8067 93.302 43.1187 93.302C43.4187 93.302 43.6707 93.41 43.8747 93.626C44.0907 93.842 44.1987 94.106 44.1987 94.418C44.1987 94.73 44.0907 94.994 43.8747 95.21C43.6707 95.426 43.4187 95.534 43.1187 95.534ZM43.9107 97.136V107H42.2727V97.136H43.9107ZM50.1944 107.162C49.4384 107.162 48.7604 107.036 48.1604 106.784C47.5604 106.52 47.0864 106.16 46.7384 105.704C46.3904 105.236 46.1984 104.702 46.1624 104.102H47.8544C47.9024 104.594 48.1304 104.996 48.5384 105.308C48.9584 105.62 49.5044 105.776 50.1764 105.776C50.8004 105.776 51.2924 105.638 51.6524 105.362C52.0124 105.086 52.1924 104.738 52.1924 104.318C52.1924 103.886 52.0004 103.568 51.6164 103.364C51.2324 103.148 50.6384 102.938 49.8344 102.734C49.1024 102.542 48.5024 102.35 48.0344 102.158C47.5784 101.954 47.1824 101.66 46.8464 101.276C46.5224 100.88 46.3604 100.364 46.3604 99.728C46.3604 99.224 46.5104 98.762 46.8104 98.342C47.1104 97.922 47.5364 97.592 48.0884 97.352C48.6404 97.1 49.2704 96.974 49.9784 96.974C51.0704 96.974 51.9524 97.25 52.6244 97.802C53.2964 98.354 53.6564 99.11 53.7044 100.07H52.0664C52.0304 99.554 51.8204 99.14 51.4364 98.828C51.0644 98.516 50.5604 98.36 49.9244 98.36C49.3364 98.36 48.8684 98.486 48.5204 98.738C48.1724 98.99 47.9984 99.32 47.9984 99.728C47.9984 100.052 48.1004 100.322 48.3044 100.538C48.5204 100.742 48.7844 100.91 49.0964 101.042C49.4204 101.162 49.8644 101.3 50.4284 101.456C51.1364 101.648 51.7124 101.84 52.1564 102.032C52.6004 102.212 52.9784 102.488 53.2904 102.86C53.6144 103.232 53.7824 103.718 53.7944 104.318C53.7944 104.858 53.6444 105.344 53.3444 105.776C53.0444 106.208 52.6184 106.55 52.0664 106.802C51.5264 107.042 50.9024 107.162 50.1944 107.162ZM55.4947 102.05C55.4947 101.03 55.6987 100.142 56.1067 99.386C56.5147 98.618 57.0787 98.024 57.7987 97.604C58.5307 97.184 59.3647 96.974 60.3007 96.974C61.5127 96.974 62.5087 97.268 63.2887 97.856C64.0807 98.444 64.6027 99.26 64.8547 100.304H63.0907C62.9227 99.704 62.5927 99.23 62.1007 98.882C61.6207 98.534 61.0207 98.36 60.3007 98.36C59.3647 98.36 58.6087 98.684 58.0327 99.332C57.4567 99.968 57.1687 100.874 57.1687 102.05C57.1687 103.238 57.4567 104.156 58.0327 104.804C58.6087 105.452 59.3647 105.776 60.3007 105.776C61.0207 105.776 61.6207 105.608 62.1007 105.272C62.5807 104.936 62.9107 104.456 63.0907 103.832H64.8547C64.5907 104.84 64.0627 105.65 63.2707 106.262C62.4787 106.862 61.4887 107.162 60.3007 107.162C59.3647 107.162 58.5307 106.952 57.7987 106.532C57.0787 106.112 56.5147 105.518 56.1067 104.75C55.6987 103.982 55.4947 103.082 55.4947 102.05ZM67.8863 95.534C67.5743 95.534 67.3103 95.426 67.0943 95.21C66.8783 94.994 66.7703 94.73 66.7703 94.418C66.7703 94.106 66.8783 93.842 67.0943 93.626C67.3103 93.41 67.5743 93.302 67.8863 93.302C68.1863 93.302 68.4383 93.41 68.6423 93.626C68.8583 93.842 68.9663 94.106 68.9663 94.418C68.9663 94.73 68.8583 94.994 68.6423 95.21C68.4383 95.426 68.1863 95.534 67.8863 95.534ZM68.6783 97.136V107H67.0403V97.136H68.6783ZM76.276 96.956C77.476 96.956 78.448 97.322 79.192 98.054C79.936 98.774 80.308 99.818 80.308 101.186V107H78.688V101.42C78.688 100.436 78.442 99.686 77.95 99.17C77.458 98.642 76.786 98.378 75.934 98.378C75.07 98.378 74.38 98.648 73.864 99.188C73.36 99.728 73.108 100.514 73.108 101.546V107H71.47V97.136H73.108V98.54C73.432 98.036 73.87 97.646 74.422 97.37C74.986 97.094 75.604 96.956 76.276 96.956ZM87.0517 96.974C87.9037 96.974 88.6477 97.16 89.2837 97.532C89.9317 97.904 90.4117 98.372 90.7237 98.936V97.136H92.3797V107.216C92.3797 108.116 92.1877 108.914 91.8037 109.61C91.4197 110.318 90.8677 110.87 90.1477 111.266C89.4397 111.662 88.6117 111.86 87.6637 111.86C86.3677 111.86 85.2877 111.554 84.4237 110.942C83.5597 110.33 83.0497 109.496 82.8937 108.44H84.5137C84.6937 109.04 85.0657 109.52 85.6297 109.88C86.1937 110.252 86.8717 110.438 87.6637 110.438C88.5637 110.438 89.2957 110.156 89.8597 109.592C90.4357 109.028 90.7237 108.236 90.7237 107.216V105.146C90.3997 105.722 89.9197 106.202 89.2837 106.586C88.6477 106.97 87.9037 107.162 87.0517 107.162C86.1757 107.162 85.3777 106.946 84.6577 106.514C83.9497 106.082 83.3917 105.476 82.9837 104.696C82.5757 103.916 82.3717 103.028 82.3717 102.032C82.3717 101.024 82.5757 100.142 82.9837 99.386C83.3917 98.618 83.9497 98.024 84.6577 97.604C85.3777 97.184 86.1757 96.974 87.0517 96.974ZM90.7237 102.05C90.7237 101.306 90.5737 100.658 90.2737 100.106C89.9737 99.554 89.5657 99.134 89.0497 98.846C88.5457 98.546 87.9877 98.396 87.3757 98.396C86.7637 98.396 86.2057 98.54 85.7017 98.828C85.1977 99.116 84.7957 99.536 84.4957 100.088C84.1957 100.64 84.0457 101.288 84.0457 102.032C84.0457 102.788 84.1957 103.448 84.4957 104.012C84.7957 104.564 85.1977 104.99 85.7017 105.29C86.2057 105.578 86.7637 105.722 87.3757 105.722C87.9877 105.722 88.5457 105.578 89.0497 105.29C89.5657 104.99 89.9737 104.564 90.2737 104.012C90.5737 103.448 90.7237 102.794 90.7237 102.05ZM99.3345 102.032C99.3345 101.024 99.5385 100.142 99.9465 99.386C100.355 98.618 100.913 98.024 101.621 97.604C102.341 97.184 103.139 96.974 104.015 96.974C104.879 96.974 105.629 97.16 106.265 97.532C106.901 97.904 107.375 98.372 107.687 98.936V97.136H109.343V107H107.687V105.164C107.363 105.74 106.877 106.22 106.229 106.604C105.593 106.976 104.849 107.162 103.997 107.162C103.121 107.162 102.329 106.946 101.621 106.514C100.913 106.082 100.355 105.476 99.9465 104.696C99.5385 103.916 99.3345 103.028 99.3345 102.032ZM107.687 102.05C107.687 101.306 107.537 100.658 107.237 100.106C106.937 99.554 106.529 99.134 106.013 98.846C105.509 98.546 104.951 98.396 104.339 98.396C103.727 98.396 103.169 98.54 102.665 98.828C102.161 99.116 101.759 99.536 101.459 100.088C101.159 100.64 101.009 101.288 101.009 102.032C101.009 102.788 101.159 103.448 101.459 104.012C101.759 104.564 102.161 104.99 102.665 105.29C103.169 105.578 103.727 105.722 104.339 105.722C104.951 105.722 105.509 105.578 106.013 105.29C106.529 104.99 106.937 104.564 107.237 104.012C107.537 103.448 107.687 102.794 107.687 102.05ZM114.109 98.486V104.3C114.109 104.78 114.211 105.122 114.415 105.326C114.619 105.518 114.973 105.614 115.477 105.614H116.683V107H115.207C114.295 107 113.611 106.79 113.155 106.37C112.699 105.95 112.471 105.26 112.471 104.3V98.486H111.193V97.136H112.471V94.652H114.109V97.136H116.683V98.486H114.109ZM124.312 95.534C124 95.534 123.736 95.426 123.52 95.21C123.304 94.994 123.196 94.73 123.196 94.418C123.196 94.106 123.304 93.842 123.52 93.626C123.736 93.41 124 93.302 124.312 93.302C124.612 93.302 124.864 93.41 125.068 93.626C125.284 93.842 125.392 94.106 125.392 94.418C125.392 94.73 125.284 94.994 125.068 95.21C124.864 95.426 124.612 95.534 124.312 95.534ZM125.104 97.136V107H123.466V97.136H125.104ZM132.702 96.956C133.902 96.956 134.874 97.322 135.618 98.054C136.362 98.774 136.734 99.818 136.734 101.186V107H135.114V101.42C135.114 100.436 134.868 99.686 134.376 99.17C133.884 98.642 133.212 98.378 132.36 98.378C131.496 98.378 130.806 98.648 130.29 99.188C129.786 99.728 129.534 100.514 129.534 101.546V107H127.896V97.136H129.534V98.54C129.858 98.036 130.296 97.646 130.848 97.37C131.412 97.094 132.03 96.956 132.702 96.956ZM146.206 98.486V104.3C146.206 104.78 146.308 105.122 146.512 105.326C146.716 105.518 147.07 105.614 147.574 105.614H148.78V107H147.304C146.392 107 145.708 106.79 145.252 106.37C144.796 105.95 144.568 105.26 144.568 104.3V98.486H143.29V97.136H144.568V94.652H146.206V97.136H148.78V98.486H146.206ZM159.765 101.69C159.765 102.002 159.747 102.332 159.711 102.68H151.827C151.887 103.652 152.217 104.414 152.817 104.966C153.429 105.506 154.167 105.776 155.031 105.776C155.739 105.776 156.327 105.614 156.795 105.29C157.275 104.954 157.611 104.51 157.803 103.958H159.567C159.303 104.906 158.775 105.68 157.983 106.28C157.191 106.868 156.207 107.162 155.031 107.162C154.095 107.162 153.255 106.952 152.511 106.532C151.779 106.112 151.203 105.518 150.783 104.75C150.363 103.97 150.153 103.07 150.153 102.05C150.153 101.03 150.357 100.136 150.765 99.368C151.173 98.6 151.743 98.012 152.475 97.604C153.219 97.184 154.071 96.974 155.031 96.974C155.967 96.974 156.795 97.178 157.515 97.586C158.235 97.994 158.787 98.558 159.171 99.278C159.567 99.986 159.765 100.79 159.765 101.69ZM158.073 101.348C158.073 100.724 157.935 100.19 157.659 99.746C157.383 99.29 157.005 98.948 156.525 98.72C156.057 98.48 155.535 98.36 154.959 98.36C154.131 98.36 153.423 98.624 152.835 99.152C152.259 99.68 151.929 100.412 151.845 101.348H158.073ZM163.565 93.68V107H161.927V93.68H163.565ZM167.995 93.68V107H166.357V93.68H167.995ZM179.534 97.136V107H177.896V105.542C177.584 106.046 177.146 106.442 176.582 106.73C176.03 107.006 175.418 107.144 174.746 107.144C173.978 107.144 173.288 106.988 172.676 106.676C172.064 106.352 171.578 105.872 171.218 105.236C170.87 104.6 170.696 103.826 170.696 102.914V97.136H172.316V102.698C172.316 103.67 172.562 104.42 173.054 104.948C173.546 105.464 174.218 105.722 175.07 105.722C175.946 105.722 176.636 105.452 177.14 104.912C177.644 104.372 177.896 103.586 177.896 102.554V97.136H179.534ZM185.792 107.162C185.036 107.162 184.358 107.036 183.758 106.784C183.158 106.52 182.684 106.16 182.336 105.704C181.988 105.236 181.796 104.702 181.76 104.102H183.452C183.5 104.594 183.728 104.996 184.136 105.308C184.556 105.62 185.102 105.776 185.774 105.776C186.398 105.776 186.89 105.638 187.25 105.362C187.61 105.086 187.79 104.738 187.79 104.318C187.79 103.886 187.598 103.568 187.214 103.364C186.83 103.148 186.236 102.938 185.432 102.734C184.7 102.542 184.1 102.35 183.632 102.158C183.176 101.954 182.78 101.66 182.444 101.276C182.12 100.88 181.958 100.364 181.958 99.728C181.958 99.224 182.108 98.762 182.408 98.342C182.708 97.922 183.134 97.592 183.686 97.352C184.238 97.1 184.868 96.974 185.576 96.974C186.668 96.974 187.55 97.25 188.222 97.802C188.894 98.354 189.254 99.11 189.302 100.07H187.664C187.628 99.554 187.418 99.14 187.034 98.828C186.662 98.516 186.158 98.36 185.522 98.36C184.934 98.36 184.466 98.486 184.118 98.738C183.77 98.99 183.596 99.32 183.596 99.728C183.596 100.052 183.698 100.322 183.902 100.538C184.118 100.742 184.382 100.91 184.694 101.042C185.018 101.162 185.462 101.3 186.026 101.456C186.734 101.648 187.31 101.84 187.754 102.032C188.198 102.212 188.576 102.488 188.888 102.86C189.212 103.232 189.38 103.718 189.392 104.318C189.392 104.858 189.242 105.344 188.942 105.776C188.642 106.208 188.216 106.55 187.664 106.802C187.124 107.042 186.5 107.162 185.792 107.162ZM197.349 95.534C197.037 95.534 196.773 95.426 196.557 95.21C196.341 94.994 196.233 94.73 196.233 94.418C196.233 94.106 196.341 93.842 196.557 93.626C196.773 93.41 197.037 93.302 197.349 93.302C197.649 93.302 197.901 93.41 198.105 93.626C198.321 93.842 198.429 94.106 198.429 94.418C198.429 94.73 198.321 94.994 198.105 95.21C197.901 95.426 197.649 95.534 197.349 95.534ZM198.141 97.136V107H196.503V97.136H198.141ZM205.739 96.956C206.939 96.956 207.911 97.322 208.655 98.054C209.399 98.774 209.771 99.818 209.771 101.186V107H208.151V101.42C208.151 100.436 207.905 99.686 207.413 99.17C206.921 98.642 206.249 98.378 205.397 98.378C204.533 98.378 203.843 98.648 203.327 99.188C202.823 99.728 202.571 100.514 202.571 101.546V107H200.933V97.136H202.571V98.54C202.895 98.036 203.333 97.646 203.885 97.37C204.449 97.094 205.067 96.956 205.739 96.956ZM214.445 98.486V104.3C214.445 104.78 214.547 105.122 214.751 105.326C214.955 105.518 215.309 105.614 215.813 105.614H217.019V107H215.543C214.631 107 213.947 106.79 213.491 106.37C213.035 105.95 212.807 105.26 212.807 104.3V98.486H211.529V97.136H212.807V94.652H214.445V97.136H217.019V98.486H214.445ZM228.003 101.69C228.003 102.002 227.985 102.332 227.949 102.68H220.065C220.125 103.652 220.455 104.414 221.055 104.966C221.667 105.506 222.405 105.776 223.269 105.776C223.977 105.776 224.565 105.614 225.033 105.29C225.513 104.954 225.849 104.51 226.041 103.958H227.805C227.541 104.906 227.013 105.68 226.221 106.28C225.429 106.868 224.445 107.162 223.269 107.162C222.333 107.162 221.493 106.952 220.749 106.532C220.017 106.112 219.441 105.518 219.021 104.75C218.601 103.97 218.391 103.07 218.391 102.05C218.391 101.03 218.595 100.136 219.003 99.368C219.411 98.6 219.981 98.012 220.713 97.604C221.457 97.184 222.309 96.974 223.269 96.974C224.205 96.974 225.033 97.178 225.753 97.586C226.473 97.994 227.025 98.558 227.409 99.278C227.805 99.986 228.003 100.79 228.003 101.69ZM226.311 101.348C226.311 100.724 226.173 100.19 225.897 99.746C225.621 99.29 225.243 98.948 224.763 98.72C224.295 98.48 223.773 98.36 223.197 98.36C222.369 98.36 221.661 98.624 221.073 99.152C220.497 99.68 220.167 100.412 220.083 101.348H226.311ZM234.233 96.974C235.085 96.974 235.829 97.16 236.465 97.532C237.113 97.904 237.593 98.372 237.905 98.936V97.136H239.561V107.216C239.561 108.116 239.369 108.914 238.985 109.61C238.601 110.318 238.049 110.87 237.329 111.266C236.621 111.662 235.793 111.86 234.845 111.86C233.549 111.86 232.469 111.554 231.605 110.942C230.741 110.33 230.231 109.496 230.075 108.44H231.695C231.875 109.04 232.247 109.52 232.811 109.88C233.375 110.252 234.053 110.438 234.845 110.438C235.745 110.438 236.477 110.156 237.041 109.592C237.617 109.028 237.905 108.236 237.905 107.216V105.146C237.581 105.722 237.101 106.202 236.465 106.586C235.829 106.97 235.085 107.162 234.233 107.162C233.357 107.162 232.559 106.946 231.839 106.514C231.131 106.082 230.573 105.476 230.165 104.696C229.757 103.916 229.553 103.028 229.553 102.032C229.553 101.024 229.757 100.142 230.165 99.386C230.573 98.618 231.131 98.024 231.839 97.604C232.559 97.184 233.357 96.974 234.233 96.974ZM237.905 102.05C237.905 101.306 237.755 100.658 237.455 100.106C237.155 99.554 236.747 99.134 236.231 98.846C235.727 98.546 235.169 98.396 234.557 98.396C233.945 98.396 233.387 98.54 232.883 98.828C232.379 99.116 231.977 99.536 231.677 100.088C231.377 100.64 231.227 101.288 231.227 102.032C231.227 102.788 231.377 103.448 231.677 104.012C231.977 104.564 232.379 104.99 232.883 105.29C233.387 105.578 233.945 105.722 234.557 105.722C235.169 105.722 235.727 105.578 236.231 105.29C236.747 104.99 237.155 104.564 237.455 104.012C237.755 103.448 237.905 102.794 237.905 102.05ZM251.329 101.69C251.329 102.002 251.311 102.332 251.275 102.68H243.391C243.451 103.652 243.781 104.414 244.381 104.966C244.993 105.506 245.731 105.776 246.595 105.776C247.303 105.776 247.891 105.614 248.359 105.29C248.839 104.954 249.175 104.51 249.367 103.958H251.131C250.867 104.906 250.339 105.68 249.547 106.28C248.755 106.868 247.771 107.162 246.595 107.162C245.659 107.162 244.819 106.952 244.075 106.532C243.343 106.112 242.767 105.518 242.347 104.75C241.927 103.97 241.717 103.07 241.717 102.05C241.717 101.03 241.921 100.136 242.329 99.368C242.737 98.6 243.307 98.012 244.039 97.604C244.783 97.184 245.635 96.974 246.595 96.974C247.531 96.974 248.359 97.178 249.079 97.586C249.799 97.994 250.351 98.558 250.735 99.278C251.131 99.986 251.329 100.79 251.329 101.69ZM249.637 101.348C249.637 100.724 249.499 100.19 249.223 99.746C248.947 99.29 248.569 98.948 248.089 98.72C247.621 98.48 247.099 98.36 246.523 98.36C245.695 98.36 244.987 98.624 244.399 99.152C243.823 99.68 243.493 100.412 243.409 101.348H249.637ZM255.129 98.738C255.417 98.174 255.825 97.736 256.353 97.424C256.893 97.112 257.547 96.956 258.315 96.956V98.648H257.883C256.047 98.648 255.129 99.644 255.129 101.636V107H253.491V97.136H255.129V98.738ZM260.728 107.108C260.416 107.108 260.152 107 259.936 106.784C259.72 106.568 259.612 106.304 259.612 105.992C259.612 105.68 259.72 105.416 259.936 105.2C260.152 104.984 260.416 104.876 260.728 104.876C261.028 104.876 261.28 104.984 261.484 105.2C261.7 105.416 261.808 105.68 261.808 105.992C261.808 106.304 261.7 106.568 261.484 106.784C261.28 107 261.028 107.108 260.728 107.108ZM277.172 98.126C277.172 99.17 276.812 100.04 276.092 100.736C275.384 101.42 274.298 101.762 272.834 101.762H270.422V107H268.784V94.454H272.834C274.25 94.454 275.324 94.796 276.056 95.48C276.8 96.164 277.172 97.046 277.172 98.126ZM272.834 100.412C273.746 100.412 274.418 100.214 274.85 99.818C275.282 99.422 275.498 98.858 275.498 98.126C275.498 96.578 274.61 95.804 272.834 95.804H270.422V100.412H272.834ZM288.208 101.69C288.208 102.002 288.19 102.332 288.154 102.68H280.27C280.33 103.652 280.66 104.414 281.26 104.966C281.872 105.506 282.61 105.776 283.474 105.776C284.182 105.776 284.77 105.614 285.238 105.29C285.718 104.954 286.054 104.51 286.246 103.958H288.01C287.746 104.906 287.218 105.68 286.426 106.28C285.634 106.868 284.65 107.162 283.474 107.162C282.538 107.162 281.698 106.952 280.954 106.532C280.222 106.112 279.646 105.518 279.226 104.75C278.806 103.97 278.596 103.07 278.596 102.05C278.596 101.03 278.8 100.136 279.208 99.368C279.616 98.6 280.186 98.012 280.918 97.604C281.662 97.184 282.514 96.974 283.474 96.974C284.41 96.974 285.238 97.178 285.958 97.586C286.678 97.994 287.23 98.558 287.614 99.278C288.01 99.986 288.208 100.79 288.208 101.69ZM286.516 101.348C286.516 100.724 286.378 100.19 286.102 99.746C285.826 99.29 285.448 98.948 284.968 98.72C284.5 98.48 283.978 98.36 283.402 98.36C282.574 98.36 281.866 98.624 281.278 99.152C280.702 99.68 280.372 100.412 280.288 101.348H286.516ZM292.008 93.68V107H290.37V93.68H292.008ZM296.438 93.68V107H294.8V93.68H296.438ZM308.23 101.69C308.23 102.002 308.212 102.332 308.176 102.68H300.292C300.352 103.652 300.682 104.414 301.282 104.966C301.894 105.506 302.632 105.776 303.496 105.776C304.204 105.776 304.792 105.614 305.26 105.29C305.74 104.954 306.076 104.51 306.268 103.958H308.032C307.768 104.906 307.24 105.68 306.448 106.28C305.656 106.868 304.672 107.162 303.496 107.162C302.56 107.162 301.72 106.952 300.976 106.532C300.244 106.112 299.668 105.518 299.248 104.75C298.828 103.97 298.618 103.07 298.618 102.05C298.618 101.03 298.822 100.136 299.23 99.368C299.638 98.6 300.208 98.012 300.94 97.604C301.684 97.184 302.536 96.974 303.496 96.974C304.432 96.974 305.26 97.178 305.98 97.586C306.7 97.994 307.252 98.558 307.636 99.278C308.032 99.986 308.23 100.79 308.23 101.69ZM306.538 101.348C306.538 100.724 306.4 100.19 306.124 99.746C305.848 99.29 305.47 98.948 304.99 98.72C304.522 98.48 304 98.36 303.424 98.36C302.596 98.36 301.888 98.624 301.3 99.152C300.724 99.68 300.394 100.412 300.31 101.348H306.538ZM315.198 96.956C316.398 96.956 317.37 97.322 318.114 98.054C318.858 98.774 319.23 99.818 319.23 101.186V107H317.61V101.42C317.61 100.436 317.364 99.686 316.872 99.17C316.38 98.642 315.708 98.378 314.856 98.378C313.992 98.378 313.302 98.648 312.786 99.188C312.282 99.728 312.03 100.514 312.03 101.546V107H310.392V97.136H312.03V98.54C312.354 98.036 312.792 97.646 313.344 97.37C313.908 97.094 314.526 96.956 315.198 96.956ZM323.904 98.486V104.3C323.904 104.78 324.006 105.122 324.21 105.326C324.414 105.518 324.768 105.614 325.272 105.614H326.478V107H325.002C324.09 107 323.406 106.79 322.95 106.37C322.494 105.95 322.266 105.26 322.266 104.3V98.486H320.988V97.136H322.266V94.652H323.904V97.136H326.478V98.486H323.904ZM337.462 101.69C337.462 102.002 337.444 102.332 337.408 102.68H329.524C329.584 103.652 329.914 104.414 330.514 104.966C331.126 105.506 331.864 105.776 332.728 105.776C333.436 105.776 334.024 105.614 334.492 105.29C334.972 104.954 335.308 104.51 335.5 103.958H337.264C337 104.906 336.472 105.68 335.68 106.28C334.888 106.868 333.904 107.162 332.728 107.162C331.792 107.162 330.952 106.952 330.208 106.532C329.476 106.112 328.9 105.518 328.48 104.75C328.06 103.97 327.85 103.07 327.85 102.05C327.85 101.03 328.054 100.136 328.462 99.368C328.87 98.6 329.44 98.012 330.172 97.604C330.916 97.184 331.768 96.974 332.728 96.974C333.664 96.974 334.492 97.178 335.212 97.586C335.932 97.994 336.484 98.558 336.868 99.278C337.264 99.986 337.462 100.79 337.462 101.69ZM335.77 101.348C335.77 100.724 335.632 100.19 335.356 99.746C335.08 99.29 334.702 98.948 334.222 98.72C333.754 98.48 333.232 98.36 332.656 98.36C331.828 98.36 331.12 98.624 330.532 99.152C329.956 99.68 329.626 100.412 329.542 101.348H335.77ZM343.116 107.162C342.36 107.162 341.682 107.036 341.082 106.784C340.482 106.52 340.008 106.16 339.66 105.704C339.312 105.236 339.12 104.702 339.084 104.102H340.776C340.824 104.594 341.052 104.996 341.46 105.308C341.88 105.62 342.426 105.776 343.098 105.776C343.722 105.776 344.214 105.638 344.574 105.362C344.934 105.086 345.114 104.738 345.114 104.318C345.114 103.886 344.922 103.568 344.538 103.364C344.154 103.148 343.56 102.938 342.756 102.734C342.024 102.542 341.424 102.35 340.956 102.158C340.5 101.954 340.104 101.66 339.768 101.276C339.444 100.88 339.282 100.364 339.282 99.728C339.282 99.224 339.432 98.762 339.732 98.342C340.032 97.922 340.458 97.592 341.01 97.352C341.562 97.1 342.192 96.974 342.9 96.974C343.992 96.974 344.874 97.25 345.546 97.802C346.218 98.354 346.578 99.11 346.626 100.07H344.988C344.952 99.554 344.742 99.14 344.358 98.828C343.986 98.516 343.482 98.36 342.846 98.36C342.258 98.36 341.79 98.486 341.442 98.738C341.094 98.99 340.92 99.32 340.92 99.728C340.92 100.052 341.022 100.322 341.226 100.538C341.442 100.742 341.706 100.91 342.018 101.042C342.342 101.162 342.786 101.3 343.35 101.456C344.058 101.648 344.634 101.84 345.078 102.032C345.522 102.212 345.9 102.488 346.212 102.86C346.536 103.232 346.704 103.718 346.716 104.318C346.716 104.858 346.566 105.344 346.266 105.776C345.966 106.208 345.54 106.55 344.988 106.802C344.448 107.042 343.824 107.162 343.116 107.162ZM348.417 102.032C348.417 101.024 348.621 100.142 349.029 99.386C349.437 98.618 349.995 98.024 350.703 97.604C351.423 97.184 352.227 96.974 353.115 96.974C353.967 96.974 354.711 97.166 355.347 97.55C355.995 97.922 356.469 98.384 356.769 98.936V97.136H358.425V111.68H356.769V105.182C356.457 105.734 355.977 106.202 355.329 106.586C354.681 106.97 353.925 107.162 353.061 107.162C352.197 107.162 351.411 106.946 350.703 106.514C349.995 106.082 349.437 105.476 349.029 104.696C348.621 103.916 348.417 103.028 348.417 102.032ZM356.769 102.05C356.769 101.306 356.619 100.658 356.319 100.106C356.019 99.554 355.611 99.134 355.095 98.846C354.591 98.546 354.033 98.396 353.421 98.396C352.809 98.396 352.251 98.54 351.747 98.828C351.243 99.116 350.841 99.536 350.541 100.088C350.241 100.64 350.091 101.288 350.091 102.032C350.091 102.788 350.241 103.448 350.541 104.012C350.841 104.564 351.243 104.99 351.747 105.29C352.251 105.578 352.809 105.722 353.421 105.722C354.033 105.722 354.591 105.578 355.095 105.29C355.611 104.99 356.019 104.564 356.319 104.012C356.619 103.448 356.769 102.794 356.769 102.05ZM369.941 97.136V107H368.303V105.542C367.991 106.046 367.553 106.442 366.989 106.73C366.437 107.006 365.825 107.144 365.153 107.144C364.385 107.144 363.695 106.988 363.083 106.676C362.471 106.352 361.985 105.872 361.625 105.236C361.277 104.6 361.103 103.826 361.103 102.914V97.136H362.723V102.698C362.723 103.67 362.969 104.42 363.461 104.948C363.953 105.464 364.625 105.722 365.477 105.722C366.353 105.722 367.043 105.452 367.547 104.912C368.051 104.372 368.303 103.586 368.303 102.554V97.136H369.941ZM381.706 101.69C381.706 102.002 381.688 102.332 381.652 102.68H373.768C373.828 103.652 374.158 104.414 374.758 104.966C375.37 105.506 376.108 105.776 376.972 105.776C377.68 105.776 378.268 105.614 378.736 105.29C379.216 104.954 379.552 104.51 379.744 103.958H381.508C381.244 104.906 380.716 105.68 379.924 106.28C379.132 106.868 378.148 107.162 376.972 107.162C376.036 107.162 375.196 106.952 374.452 106.532C373.72 106.112 373.144 105.518 372.724 104.75C372.304 103.97 372.094 103.07 372.094 102.05C372.094 101.03 372.298 100.136 372.706 99.368C373.114 98.6 373.684 98.012 374.416 97.604C375.16 97.184 376.012 96.974 376.972 96.974C377.908 96.974 378.736 97.178 379.456 97.586C380.176 97.994 380.728 98.558 381.112 99.278C381.508 99.986 381.706 100.79 381.706 101.69ZM380.014 101.348C380.014 100.724 379.876 100.19 379.6 99.746C379.324 99.29 378.946 98.948 378.466 98.72C377.998 98.48 377.476 98.36 376.9 98.36C376.072 98.36 375.364 98.624 374.776 99.152C374.2 99.68 373.87 100.412 373.786 101.348H380.014ZM400.529 96.956C401.297 96.956 401.981 97.118 402.581 97.442C403.181 97.754 403.655 98.228 404.003 98.864C404.351 99.5 404.525 100.274 404.525 101.186V107H402.905V101.42C402.905 100.436 402.659 99.686 402.167 99.17C401.687 98.642 401.033 98.378 400.205 98.378C399.353 98.378 398.675 98.654 398.171 99.206C397.667 99.746 397.415 100.532 397.415 101.564V107H395.795V101.42C395.795 100.436 395.549 99.686 395.057 99.17C394.577 98.642 393.923 98.378 393.095 98.378C392.243 98.378 391.565 98.654 391.061 99.206C390.557 99.746 390.305 100.532 390.305 101.564V107H388.667V97.136H390.305V98.558C390.629 98.042 391.061 97.646 391.601 97.37C392.153 97.094 392.759 96.956 393.419 96.956C394.247 96.956 394.979 97.142 395.615 97.514C396.251 97.886 396.725 98.432 397.037 99.152C397.313 98.456 397.769 97.916 398.405 97.532C399.041 97.148 399.749 96.956 400.529 96.956ZM406.6 102.032C406.6 101.024 406.804 100.142 407.212 99.386C407.62 98.618 408.178 98.024 408.886 97.604C409.606 97.184 410.404 96.974 411.28 96.974C412.144 96.974 412.894 97.16 413.53 97.532C414.166 97.904 414.64 98.372 414.952 98.936V97.136H416.608V107H414.952V105.164C414.628 105.74 414.142 106.22 413.494 106.604C412.858 106.976 412.114 107.162 411.262 107.162C410.386 107.162 409.594 106.946 408.886 106.514C408.178 106.082 407.62 105.476 407.212 104.696C406.804 103.916 406.6 103.028 406.6 102.032ZM414.952 102.05C414.952 101.306 414.802 100.658 414.502 100.106C414.202 99.554 413.794 99.134 413.278 98.846C412.774 98.546 412.216 98.396 411.604 98.396C410.992 98.396 410.434 98.54 409.93 98.828C409.426 99.116 409.024 99.536 408.724 100.088C408.424 100.64 408.274 101.288 408.274 102.032C408.274 102.788 408.424 103.448 408.724 104.012C409.024 104.564 409.426 104.99 409.93 105.29C410.434 105.578 410.992 105.722 411.604 105.722C412.216 105.722 412.774 105.578 413.278 105.29C413.794 104.99 414.202 104.564 414.502 104.012C414.802 103.448 414.952 102.794 414.952 102.05ZM422.868 107.162C422.112 107.162 421.434 107.036 420.834 106.784C420.234 106.52 419.76 106.16 419.412 105.704C419.064 105.236 418.872 104.702 418.836 104.102H420.528C420.576 104.594 420.804 104.996 421.212 105.308C421.632 105.62 422.178 105.776 422.85 105.776C423.474 105.776 423.966 105.638 424.326 105.362C424.686 105.086 424.866 104.738 424.866 104.318C424.866 103.886 424.674 103.568 424.29 103.364C423.906 103.148 423.312 102.938 422.508 102.734C421.776 102.542 421.176 102.35 420.708 102.158C420.252 101.954 419.856 101.66 419.52 101.276C419.196 100.88 419.034 100.364 419.034 99.728C419.034 99.224 419.184 98.762 419.484 98.342C419.784 97.922 420.21 97.592 420.762 97.352C421.314 97.1 421.944 96.974 422.652 96.974C423.744 96.974 424.626 97.25 425.298 97.802C425.97 98.354 426.33 99.11 426.378 100.07H424.74C424.704 99.554 424.494 99.14 424.11 98.828C423.738 98.516 423.234 98.36 422.598 98.36C422.01 98.36 421.542 98.486 421.194 98.738C420.846 98.99 420.672 99.32 420.672 99.728C420.672 100.052 420.774 100.322 420.978 100.538C421.194 100.742 421.458 100.91 421.77 101.042C422.094 101.162 422.538 101.3 423.102 101.456C423.81 101.648 424.386 101.84 424.83 102.032C425.274 102.212 425.652 102.488 425.964 102.86C426.288 103.232 426.456 103.718 426.468 104.318C426.468 104.858 426.318 105.344 426.018 105.776C425.718 106.208 425.292 106.55 424.74 106.802C424.2 107.042 423.576 107.162 422.868 107.162ZM432.273 107.162C431.517 107.162 430.839 107.036 430.239 106.784C429.639 106.52 429.165 106.16 428.817 105.704C428.469 105.236 428.277 104.702 428.241 104.102H429.933C429.981 104.594 430.209 104.996 430.617 105.308C431.037 105.62 431.583 105.776 432.255 105.776C432.879 105.776 433.371 105.638 433.731 105.362C434.091 105.086 434.271 104.738 434.271 104.318C434.271 103.886 434.079 103.568 433.695 103.364C433.311 103.148 432.717 102.938 431.913 102.734C431.181 102.542 430.581 102.35 430.113 102.158C429.657 101.954 429.261 101.66 428.925 101.276C428.601 100.88 428.439 100.364 428.439 99.728C428.439 99.224 428.589 98.762 428.889 98.342C429.189 97.922 429.615 97.592 430.167 97.352C430.719 97.1 431.349 96.974 432.057 96.974C433.149 96.974 434.031 97.25 434.703 97.802C435.375 98.354 435.735 99.11 435.783 100.07H434.145C434.109 99.554 433.899 99.14 433.515 98.828C433.143 98.516 432.639 98.36 432.003 98.36C431.415 98.36 430.947 98.486 430.599 98.738C430.251 98.99 430.077 99.32 430.077 99.728C430.077 100.052 430.179 100.322 430.383 100.538C430.599 100.742 430.863 100.91 431.175 101.042C431.499 101.162 431.943 101.3 432.507 101.456C433.215 101.648 433.791 101.84 434.235 102.032C434.679 102.212 435.057 102.488 435.369 102.86C435.693 103.232 435.861 103.718 435.873 104.318C435.873 104.858 435.723 105.344 435.423 105.776C435.123 106.208 434.697 106.55 434.145 106.802C433.605 107.042 432.981 107.162 432.273 107.162ZM437.573 102.032C437.573 101.024 437.777 100.142 438.185 99.386C438.593 98.618 439.151 98.024 439.859 97.604C440.579 97.184 441.377 96.974 442.253 96.974C443.117 96.974 443.867 97.16 444.503 97.532C445.139 97.904 445.613 98.372 445.925 98.936V97.136H447.581V107H445.925V105.164C445.601 105.74 445.115 106.22 444.467 106.604C443.831 106.976 443.087 107.162 442.235 107.162C441.359 107.162 440.567 106.946 439.859 106.514C439.151 106.082 438.593 105.476 438.185 104.696C437.777 103.916 437.573 103.028 437.573 102.032ZM445.925 102.05C445.925 101.306 445.775 100.658 445.475 100.106C445.175 99.554 444.767 99.134 444.251 98.846C443.747 98.546 443.189 98.396 442.577 98.396C441.965 98.396 441.407 98.54 440.903 98.828C440.399 99.116 439.997 99.536 439.697 100.088C439.397 100.64 439.247 101.288 439.247 102.032C439.247 102.788 439.397 103.448 439.697 104.012C439.997 104.564 440.399 104.99 440.903 105.29C441.407 105.578 441.965 105.722 442.577 105.722C443.189 105.722 443.747 105.578 444.251 105.29C444.767 104.99 445.175 104.564 445.475 104.012C445.775 103.448 445.925 102.794 445.925 102.05ZM3.024 128.954C3.348 128.39 3.828 127.922 4.464 127.55C5.112 127.166 5.862 126.974 6.714 126.974C7.59 126.974 8.382 127.184 9.09 127.604C9.81 128.024 10.374 128.618 10.782 129.386C11.19 130.142 11.394 131.024 11.394 132.032C11.394 133.028 11.19 133.916 10.782 134.696C10.374 135.476 9.81 136.082 9.09 136.514C8.382 136.946 7.59 137.162 6.714 137.162C5.874 137.162 5.13 136.976 4.482 136.604C3.846 136.22 3.36 135.746 3.024 135.182V141.68H1.386V127.136H3.024V128.954ZM9.72 132.032C9.72 131.288 9.57 130.64 9.27 130.088C8.97 129.536 8.562 129.116 8.046 128.828C7.542 128.54 6.984 128.396 6.372 128.396C5.772 128.396 5.214 128.546 4.698 128.846C4.194 129.134 3.786 129.56 3.474 130.124C3.174 130.676 3.024 131.318 3.024 132.05C3.024 132.794 3.174 133.448 3.474 134.012C3.786 134.564 4.194 134.99 4.698 135.29C5.214 135.578 5.772 135.722 6.372 135.722C6.984 135.722 7.542 135.578 8.046 135.29C8.562 134.99 8.97 134.564 9.27 134.012C9.57 133.448 9.72 132.788 9.72 132.032ZM15.1881 123.68V137H13.5501V123.68H15.1881ZM17.3678 132.032C17.3678 131.024 17.5718 130.142 17.9798 129.386C18.3878 128.618 18.9458 128.024 19.6538 127.604C20.3738 127.184 21.1718 126.974 22.0478 126.974C22.9118 126.974 23.6618 127.16 24.2978 127.532C24.9338 127.904 25.4078 128.372 25.7198 128.936V127.136H27.3758V137H25.7198V135.164C25.3958 135.74 24.9098 136.22 24.2618 136.604C23.6258 136.976 22.8818 137.162 22.0298 137.162C21.1538 137.162 20.3618 136.946 19.6538 136.514C18.9458 136.082 18.3878 135.476 17.9798 134.696C17.5718 133.916 17.3678 133.028 17.3678 132.032ZM25.7198 132.05C25.7198 131.306 25.5698 130.658 25.2698 130.106C24.9698 129.554 24.5618 129.134 24.0458 128.846C23.5418 128.546 22.9838 128.396 22.3718 128.396C21.7598 128.396 21.2018 128.54 20.6978 128.828C20.1938 129.116 19.7918 129.536 19.4918 130.088C19.1918 130.64 19.0418 131.288 19.0418 132.032C19.0418 132.788 19.1918 133.448 19.4918 134.012C19.7918 134.564 20.1938 134.99 20.6978 135.29C21.2018 135.578 21.7598 135.722 22.3718 135.722C22.9838 135.722 23.5418 135.578 24.0458 135.29C24.5618 134.99 24.9698 134.564 25.2698 134.012C25.5698 133.448 25.7198 132.794 25.7198 132.05ZM29.5318 132.05C29.5318 131.03 29.7358 130.142 30.1438 129.386C30.5518 128.618 31.1158 128.024 31.8358 127.604C32.5678 127.184 33.4018 126.974 34.3378 126.974C35.5498 126.974 36.5458 127.268 37.3258 127.856C38.1178 128.444 38.6398 129.26 38.8918 130.304H37.1278C36.9598 129.704 36.6298 129.23 36.1378 128.882C35.6578 128.534 35.0578 128.36 34.3378 128.36C33.4018 128.36 32.6458 128.684 32.0698 129.332C31.4938 129.968 31.2058 130.874 31.2058 132.05C31.2058 133.238 31.4938 134.156 32.0698 134.804C32.6458 135.452 33.4018 135.776 34.3378 135.776C35.0578 135.776 35.6578 135.608 36.1378 135.272C36.6178 134.936 36.9478 134.456 37.1278 133.832H38.8918C38.6278 134.84 38.0998 135.65 37.3078 136.262C36.5158 136.862 35.5258 137.162 34.3378 137.162C33.4018 137.162 32.5678 136.952 31.8358 136.532C31.1158 136.112 30.5518 135.518 30.1438 134.75C29.7358 133.982 29.5318 133.082 29.5318 132.05ZM50.0774 131.69C50.0774 132.002 50.0594 132.332 50.0234 132.68H42.1394C42.1994 133.652 42.5294 134.414 43.1294 134.966C43.7414 135.506 44.4794 135.776 45.3434 135.776C46.0514 135.776 46.6394 135.614 47.1074 135.29C47.5874 134.954 47.9234 134.51 48.1154 133.958H49.8794C49.6154 134.906 49.0874 135.68 48.2954 136.28C47.5034 136.868 46.5194 137.162 45.3434 137.162C44.4074 137.162 43.5674 136.952 42.8234 136.532C42.0914 136.112 41.5154 135.518 41.0954 134.75C40.6754 133.97 40.4654 133.07 40.4654 132.05C40.4654 131.03 40.6694 130.136 41.0774 129.368C41.4854 128.6 42.0554 128.012 42.7874 127.604C43.5314 127.184 44.3834 126.974 45.3434 126.974C46.2794 126.974 47.1074 127.178 47.8274 127.586C48.5474 127.994 49.0994 128.558 49.4834 129.278C49.8794 129.986 50.0774 130.79 50.0774 131.69ZM48.3854 131.348C48.3854 130.724 48.2474 130.19 47.9714 129.746C47.6954 129.29 47.3174 128.948 46.8374 128.72C46.3694 128.48 45.8474 128.36 45.2714 128.36C44.4434 128.36 43.7354 128.624 43.1474 129.152C42.5714 129.68 42.2414 130.412 42.1574 131.348H48.3854ZM53.8775 128.738C54.1655 128.174 54.5735 127.736 55.1015 127.424C55.6415 127.112 56.2955 126.956 57.0635 126.956V128.648H56.6315C54.7955 128.648 53.8775 129.644 53.8775 131.636V137H52.2395V127.136H53.8775V128.738ZM58.3424 132.032C58.3424 131.024 58.5464 130.142 58.9544 129.386C59.3624 128.618 59.9204 128.024 60.6284 127.604C61.3484 127.184 62.1464 126.974 63.0224 126.974C63.8864 126.974 64.6364 127.16 65.2724 127.532C65.9084 127.904 66.3824 128.372 66.6944 128.936V127.136H68.3504V137H66.6944V135.164C66.3704 135.74 65.8844 136.22 65.2364 136.604C64.6004 136.976 63.8564 137.162 63.0044 137.162C62.1284 137.162 61.3364 136.946 60.6284 136.514C59.9204 136.082 59.3624 135.476 58.9544 134.696C58.5464 133.916 58.3424 133.028 58.3424 132.032ZM66.6944 132.05C66.6944 131.306 66.5444 130.658 66.2444 130.106C65.9444 129.554 65.5364 129.134 65.0204 128.846C64.5164 128.546 63.9584 128.396 63.3464 128.396C62.7344 128.396 62.1764 128.54 61.6724 128.828C61.1684 129.116 60.7664 129.536 60.4664 130.088C60.1664 130.64 60.0164 131.288 60.0164 132.032C60.0164 132.788 60.1664 133.448 60.4664 134.012C60.7664 134.564 61.1684 134.99 61.6724 135.29C62.1764 135.578 62.7344 135.722 63.3464 135.722C63.9584 135.722 64.5164 135.578 65.0204 135.29C65.5364 134.99 65.9444 134.564 66.2444 134.012C66.5444 133.448 66.6944 132.794 66.6944 132.05ZM73.1164 128.486V134.3C73.1164 134.78 73.2184 135.122 73.4224 135.326C73.6264 135.518 73.9804 135.614 74.4844 135.614H75.6904V137H74.2144C73.3024 137 72.6184 136.79 72.1624 136.37C71.7064 135.95 71.4784 135.26 71.4784 134.3V128.486H70.2004V127.136H71.4784V124.652H73.1164V127.136H75.6904V128.486H73.1164ZM81.8619 132.032C81.8619 131.024 82.0659 130.142 82.4739 129.386C82.8819 128.618 83.4399 128.024 84.1479 127.604C84.8679 127.184 85.6719 126.974 86.5599 126.974C87.3279 126.974 88.0419 127.154 88.7019 127.514C89.3619 127.862 89.8659 128.324 90.2139 128.9V123.68H91.8699V137H90.2139V135.146C89.8899 135.734 89.4099 136.22 88.7739 136.604C88.1379 136.976 87.3939 137.162 86.5419 137.162C85.6659 137.162 84.8679 136.946 84.1479 136.514C83.4399 136.082 82.8819 135.476 82.4739 134.696C82.0659 133.916 81.8619 133.028 81.8619 132.032ZM90.2139 132.05C90.2139 131.306 90.0639 130.658 89.7639 130.106C89.4639 129.554 89.0559 129.134 88.5399 128.846C88.0359 128.546 87.4779 128.396 86.8659 128.396C86.2539 128.396 85.6959 128.54 85.1919 128.828C84.6879 129.116 84.2859 129.536 83.9859 130.088C83.6859 130.64 83.5359 131.288 83.5359 132.032C83.5359 132.788 83.6859 133.448 83.9859 134.012C84.2859 134.564 84.6879 134.99 85.1919 135.29C85.6959 135.578 86.2539 135.722 86.8659 135.722C87.4779 135.722 88.0359 135.578 88.5399 135.29C89.0559 134.99 89.4639 134.564 89.7639 134.012C90.0639 133.448 90.2139 132.794 90.2139 132.05ZM103.386 127.136V137H101.748V135.542C101.436 136.046 100.998 136.442 100.434 136.73C99.882 137.006 99.27 137.144 98.598 137.144C97.83 137.144 97.14 136.988 96.528 136.676C95.916 136.352 95.43 135.872 95.07 135.236C94.722 134.6 94.548 133.826 94.548 132.914V127.136H96.168V132.698C96.168 133.67 96.414 134.42 96.906 134.948C97.398 135.464 98.07 135.722 98.922 135.722C99.798 135.722 100.488 135.452 100.992 134.912C101.496 134.372 101.748 133.586 101.748 132.554V127.136H103.386ZM106.998 125.534C106.686 125.534 106.422 125.426 106.206 125.21C105.99 124.994 105.882 124.73 105.882 124.418C105.882 124.106 105.99 123.842 106.206 123.626C106.422 123.41 106.686 123.302 106.998 123.302C107.298 123.302 107.55 123.41 107.754 123.626C107.97 123.842 108.078 124.106 108.078 124.418C108.078 124.73 107.97 124.994 107.754 125.21C107.55 125.426 107.298 125.534 106.998 125.534ZM107.79 127.136V137H106.152V127.136H107.79ZM114.073 137.162C113.317 137.162 112.639 137.036 112.039 136.784C111.439 136.52 110.965 136.16 110.617 135.704C110.269 135.236 110.077 134.702 110.041 134.102H111.733C111.781 134.594 112.009 134.996 112.417 135.308C112.837 135.62 113.383 135.776 114.055 135.776C114.679 135.776 115.171 135.638 115.531 135.362C115.891 135.086 116.071 134.738 116.071 134.318C116.071 133.886 115.879 133.568 115.495 133.364C115.111 133.148 114.517 132.938 113.713 132.734C112.981 132.542 112.381 132.35 111.913 132.158C111.457 131.954 111.061 131.66 110.725 131.276C110.401 130.88 110.239 130.364 110.239 129.728C110.239 129.224 110.389 128.762 110.689 128.342C110.989 127.922 111.415 127.592 111.967 127.352C112.519 127.1 113.149 126.974 113.857 126.974C114.949 126.974 115.831 127.25 116.503 127.802C117.175 128.354 117.535 129.11 117.583 130.07H115.945C115.909 129.554 115.699 129.14 115.315 128.828C114.943 128.516 114.439 128.36 113.803 128.36C113.215 128.36 112.747 128.486 112.399 128.738C112.051 128.99 111.877 129.32 111.877 129.728C111.877 130.052 111.979 130.322 112.183 130.538C112.399 130.742 112.663 130.91 112.975 131.042C113.299 131.162 113.743 131.3 114.307 131.456C115.015 131.648 115.591 131.84 116.035 132.032C116.479 132.212 116.857 132.488 117.169 132.86C117.493 133.232 117.661 133.718 117.673 134.318C117.673 134.858 117.523 135.344 117.223 135.776C116.923 136.208 116.497 136.55 115.945 136.802C115.405 137.042 114.781 137.162 114.073 137.162ZM133.532 127.136V137H131.894V135.542C131.582 136.046 131.144 136.442 130.58 136.73C130.028 137.006 129.416 137.144 128.744 137.144C127.976 137.144 127.286 136.988 126.674 136.676C126.062 136.352 125.576 135.872 125.216 135.236C124.868 134.6 124.694 133.826 124.694 132.914V127.136H126.314V132.698C126.314 133.67 126.56 134.42 127.052 134.948C127.544 135.464 128.216 135.722 129.068 135.722C129.944 135.722 130.634 135.452 131.138 134.912C131.642 134.372 131.894 133.586 131.894 132.554V127.136H133.532ZM137.936 123.68V137H136.298V123.68H137.936ZM142.726 128.486V134.3C142.726 134.78 142.828 135.122 143.032 135.326C143.236 135.518 143.59 135.614 144.094 135.614H145.3V137H143.824C142.912 137 142.228 136.79 141.772 136.37C141.316 135.95 141.088 135.26 141.088 134.3V128.486H139.81V127.136H141.088V124.652H142.726V127.136H145.3V128.486H142.726ZM148.922 128.738C149.21 128.174 149.618 127.736 150.146 127.424C150.686 127.112 151.34 126.956 152.108 126.956V128.648H151.676C149.84 128.648 148.922 129.644 148.922 131.636V137H147.284V127.136H148.922V128.738ZM154.845 125.534C154.533 125.534 154.269 125.426 154.053 125.21C153.837 124.994 153.729 124.73 153.729 124.418C153.729 124.106 153.837 123.842 154.053 123.626C154.269 123.41 154.533 123.302 154.845 123.302C155.145 123.302 155.397 123.41 155.601 123.626C155.817 123.842 155.925 124.106 155.925 124.418C155.925 124.73 155.817 124.994 155.601 125.21C155.397 125.426 155.145 125.534 154.845 125.534ZM155.637 127.136V137H153.999V127.136H155.637ZM157.817 132.05C157.817 131.03 158.021 130.142 158.429 129.386C158.837 128.618 159.401 128.024 160.121 127.604C160.853 127.184 161.687 126.974 162.623 126.974C163.835 126.974 164.831 127.268 165.611 127.856C166.403 128.444 166.925 129.26 167.177 130.304H165.413C165.245 129.704 164.915 129.23 164.423 128.882C163.943 128.534 163.343 128.36 162.623 128.36C161.687 128.36 160.931 128.684 160.355 129.332C159.779 129.968 159.491 130.874 159.491 132.05C159.491 133.238 159.779 134.156 160.355 134.804C160.931 135.452 161.687 135.776 162.623 135.776C163.343 135.776 163.943 135.608 164.423 135.272C164.903 134.936 165.233 134.456 165.413 133.832H167.177C166.913 134.84 166.385 135.65 165.593 136.262C164.801 136.862 163.811 137.162 162.623 137.162C161.687 137.162 160.853 136.952 160.121 136.532C159.401 136.112 158.837 135.518 158.429 134.75C158.021 133.982 157.817 133.082 157.817 132.05ZM170.209 125.534C169.897 125.534 169.633 125.426 169.417 125.21C169.201 124.994 169.093 124.73 169.093 124.418C169.093 124.106 169.201 123.842 169.417 123.626C169.633 123.41 169.897 123.302 170.209 123.302C170.509 123.302 170.761 123.41 170.965 123.626C171.181 123.842 171.289 124.106 171.289 124.418C171.289 124.73 171.181 124.994 170.965 125.21C170.761 125.426 170.509 125.534 170.209 125.534ZM171.001 127.136V137H169.363V127.136H171.001ZM182.792 131.69C182.792 132.002 182.774 132.332 182.738 132.68H174.854C174.914 133.652 175.244 134.414 175.844 134.966C176.456 135.506 177.194 135.776 178.058 135.776C178.766 135.776 179.354 135.614 179.822 135.29C180.302 134.954 180.638 134.51 180.83 133.958H182.594C182.33 134.906 181.802 135.68 181.01 136.28C180.218 136.868 179.234 137.162 178.058 137.162C177.122 137.162 176.282 136.952 175.538 136.532C174.806 136.112 174.23 135.518 173.81 134.75C173.39 133.97 173.18 133.07 173.18 132.05C173.18 131.03 173.384 130.136 173.792 129.368C174.2 128.6 174.77 128.012 175.502 127.604C176.246 127.184 177.098 126.974 178.058 126.974C178.994 126.974 179.822 127.178 180.542 127.586C181.262 127.994 181.814 128.558 182.198 129.278C182.594 129.986 182.792 130.79 182.792 131.69ZM181.1 131.348C181.1 130.724 180.962 130.19 180.686 129.746C180.41 129.29 180.032 128.948 179.552 128.72C179.084 128.48 178.562 128.36 177.986 128.36C177.158 128.36 176.45 128.624 175.862 129.152C175.286 129.68 174.956 130.412 174.872 131.348H181.1ZM188.446 137.162C187.69 137.162 187.012 137.036 186.412 136.784C185.812 136.52 185.338 136.16 184.99 135.704C184.642 135.236 184.45 134.702 184.414 134.102H186.106C186.154 134.594 186.382 134.996 186.79 135.308C187.21 135.62 187.756 135.776 188.428 135.776C189.052 135.776 189.544 135.638 189.904 135.362C190.264 135.086 190.444 134.738 190.444 134.318C190.444 133.886 190.252 133.568 189.868 133.364C189.484 133.148 188.89 132.938 188.086 132.734C187.354 132.542 186.754 132.35 186.286 132.158C185.83 131.954 185.434 131.66 185.098 131.276C184.774 130.88 184.612 130.364 184.612 129.728C184.612 129.224 184.762 128.762 185.062 128.342C185.362 127.922 185.788 127.592 186.34 127.352C186.892 127.1 187.522 126.974 188.23 126.974C189.322 126.974 190.204 127.25 190.876 127.802C191.548 128.354 191.908 129.11 191.956 130.07H190.318C190.282 129.554 190.072 129.14 189.688 128.828C189.316 128.516 188.812 128.36 188.176 128.36C187.588 128.36 187.12 128.486 186.772 128.738C186.424 128.99 186.25 129.32 186.25 129.728C186.25 130.052 186.352 130.322 186.556 130.538C186.772 130.742 187.036 130.91 187.348 131.042C187.672 131.162 188.116 131.3 188.68 131.456C189.388 131.648 189.964 131.84 190.408 132.032C190.852 132.212 191.23 132.488 191.542 132.86C191.866 133.232 192.034 133.718 192.046 134.318C192.046 134.858 191.896 135.344 191.596 135.776C191.296 136.208 190.87 136.55 190.318 136.802C189.778 137.042 189.154 137.162 188.446 137.162ZM200.795 123.68V137H199.157V123.68H200.795ZM202.975 132.032C202.975 131.024 203.179 130.142 203.587 129.386C203.995 128.618 204.553 128.024 205.261 127.604C205.981 127.184 206.779 126.974 207.655 126.974C208.519 126.974 209.269 127.16 209.905 127.532C210.541 127.904 211.015 128.372 211.327 128.936V127.136H212.983V137H211.327V135.164C211.003 135.74 210.517 136.22 209.869 136.604C209.233 136.976 208.489 137.162 207.637 137.162C206.761 137.162 205.969 136.946 205.261 136.514C204.553 136.082 203.995 135.476 203.587 134.696C203.179 133.916 202.975 133.028 202.975 132.032ZM211.327 132.05C211.327 131.306 211.177 130.658 210.877 130.106C210.577 129.554 210.169 129.134 209.653 128.846C209.149 128.546 208.591 128.396 207.979 128.396C207.367 128.396 206.809 128.54 206.305 128.828C205.801 129.116 205.399 129.536 205.099 130.088C204.799 130.64 204.649 131.288 204.649 132.032C204.649 132.788 204.799 133.448 205.099 134.012C205.399 134.564 205.801 134.99 206.305 135.29C206.809 135.578 207.367 135.722 207.979 135.722C208.591 135.722 209.149 135.578 209.653 135.29C210.169 134.99 210.577 134.564 210.877 134.012C211.177 133.448 211.327 132.794 211.327 132.05ZM215.139 132.05C215.139 131.03 215.343 130.142 215.751 129.386C216.159 128.618 216.723 128.024 217.443 127.604C218.175 127.184 219.009 126.974 219.945 126.974C221.157 126.974 222.153 127.268 222.933 127.856C223.725 128.444 224.247 129.26 224.499 130.304H222.735C222.567 129.704 222.237 129.23 221.745 128.882C221.265 128.534 220.665 128.36 219.945 128.36C219.009 128.36 218.253 128.684 217.677 129.332C217.101 129.968 216.813 130.874 216.813 132.05C216.813 133.238 217.101 134.156 217.677 134.804C218.253 135.452 219.009 135.776 219.945 135.776C220.665 135.776 221.265 135.608 221.745 135.272C222.225 134.936 222.555 134.456 222.735 133.832H224.499C224.235 134.84 223.707 135.65 222.915 136.262C222.123 136.862 221.133 137.162 219.945 137.162C219.009 137.162 218.175 136.952 217.443 136.532C216.723 136.112 216.159 135.518 215.751 134.75C215.343 133.982 215.139 133.082 215.139 132.05ZM235.433 127.136V137H233.795V135.542C233.483 136.046 233.045 136.442 232.481 136.73C231.929 137.006 231.317 137.144 230.645 137.144C229.877 137.144 229.187 136.988 228.575 136.676C227.963 136.352 227.477 135.872 227.117 135.236C226.769 134.6 226.595 133.826 226.595 132.914V127.136H228.215V132.698C228.215 133.67 228.461 134.42 228.953 134.948C229.445 135.464 230.117 135.722 230.969 135.722C231.845 135.722 232.535 135.452 233.039 134.912C233.543 134.372 233.795 133.586 233.795 132.554V127.136H235.433ZM241.691 137.162C240.935 137.162 240.257 137.036 239.657 136.784C239.057 136.52 238.583 136.16 238.235 135.704C237.887 135.236 237.695 134.702 237.659 134.102H239.351C239.399 134.594 239.627 134.996 240.035 135.308C240.455 135.62 241.001 135.776 241.673 135.776C242.297 135.776 242.789 135.638 243.149 135.362C243.509 135.086 243.689 134.738 243.689 134.318C243.689 133.886 243.497 133.568 243.113 133.364C242.729 133.148 242.135 132.938 241.331 132.734C240.599 132.542 239.999 132.35 239.531 132.158C239.075 131.954 238.679 131.66 238.343 131.276C238.019 130.88 237.857 130.364 237.857 129.728C237.857 129.224 238.007 128.762 238.307 128.342C238.607 127.922 239.033 127.592 239.585 127.352C240.137 127.1 240.767 126.974 241.475 126.974C242.567 126.974 243.449 127.25 244.121 127.802C244.793 128.354 245.153 129.11 245.201 130.07H243.563C243.527 129.554 243.317 129.14 242.933 128.828C242.561 128.516 242.057 128.36 241.421 128.36C240.833 128.36 240.365 128.486 240.017 128.738C239.669 128.99 239.495 129.32 239.495 129.728C239.495 130.052 239.597 130.322 239.801 130.538C240.017 130.742 240.281 130.91 240.593 131.042C240.917 131.162 241.361 131.3 241.925 131.456C242.633 131.648 243.209 131.84 243.653 132.032C244.097 132.212 244.475 132.488 244.787 132.86C245.111 133.232 245.279 133.718 245.291 134.318C245.291 134.858 245.141 135.344 244.841 135.776C244.541 136.208 244.115 136.55 243.563 136.802C243.023 137.042 242.399 137.162 241.691 137.162ZM248.125 137.108C247.813 137.108 247.549 137 247.333 136.784C247.117 136.568 247.009 136.304 247.009 135.992C247.009 135.68 247.117 135.416 247.333 135.2C247.549 134.984 247.813 134.876 248.125 134.876C248.425 134.876 248.677 134.984 248.881 135.2C249.097 135.416 249.205 135.68 249.205 135.992C249.205 136.304 249.097 136.568 248.881 136.784C248.677 137 248.425 137.108 248.125 137.108ZM266.045 137H264.407L257.819 127.01V137H256.181V124.436H257.819L264.407 134.408V124.436H266.045V137ZM269.683 125.534C269.371 125.534 269.107 125.426 268.891 125.21C268.675 124.994 268.567 124.73 268.567 124.418C268.567 124.106 268.675 123.842 268.891 123.626C269.107 123.41 269.371 123.302 269.683 123.302C269.983 123.302 270.235 123.41 270.439 123.626C270.655 123.842 270.763 124.106 270.763 124.418C270.763 124.73 270.655 124.994 270.439 125.21C270.235 125.426 269.983 125.534 269.683 125.534ZM270.475 127.136V137H268.837V127.136H270.475ZM276.759 137.162C276.003 137.162 275.325 137.036 274.725 136.784C274.125 136.52 273.651 136.16 273.303 135.704C272.955 135.236 272.763 134.702 272.727 134.102H274.419C274.467 134.594 274.695 134.996 275.103 135.308C275.523 135.62 276.069 135.776 276.741 135.776C277.365 135.776 277.857 135.638 278.217 135.362C278.577 135.086 278.757 134.738 278.757 134.318C278.757 133.886 278.565 133.568 278.181 133.364C277.797 133.148 277.203 132.938 276.399 132.734C275.667 132.542 275.067 132.35 274.599 132.158C274.143 131.954 273.747 131.66 273.411 131.276C273.087 130.88 272.925 130.364 272.925 129.728C272.925 129.224 273.075 128.762 273.375 128.342C273.675 127.922 274.101 127.592 274.653 127.352C275.205 127.1 275.835 126.974 276.543 126.974C277.635 126.974 278.517 127.25 279.189 127.802C279.861 128.354 280.221 129.11 280.269 130.07H278.631C278.595 129.554 278.385 129.14 278.001 128.828C277.629 128.516 277.125 128.36 276.489 128.36C275.901 128.36 275.433 128.486 275.085 128.738C274.737 128.99 274.563 129.32 274.563 129.728C274.563 130.052 274.665 130.322 274.869 130.538C275.085 130.742 275.349 130.91 275.661 131.042C275.985 131.162 276.429 131.3 276.993 131.456C277.701 131.648 278.277 131.84 278.721 132.032C279.165 132.212 279.543 132.488 279.855 132.86C280.179 133.232 280.347 133.718 280.359 134.318C280.359 134.858 280.209 135.344 279.909 135.776C279.609 136.208 279.183 136.55 278.631 136.802C278.091 137.042 277.467 137.162 276.759 137.162ZM283.517 125.534C283.205 125.534 282.941 125.426 282.725 125.21C282.509 124.994 282.401 124.73 282.401 124.418C282.401 124.106 282.509 123.842 282.725 123.626C282.941 123.41 283.205 123.302 283.517 123.302C283.817 123.302 284.069 123.41 284.273 123.626C284.489 123.842 284.597 124.106 284.597 124.418C284.597 124.73 284.489 124.994 284.273 125.21C284.069 125.426 283.817 125.534 283.517 125.534ZM284.309 127.136V137H282.671V127.136H284.309ZM293.538 128.954C293.862 128.39 294.342 127.922 294.978 127.55C295.626 127.166 296.376 126.974 297.228 126.974C298.104 126.974 298.896 127.184 299.604 127.604C300.324 128.024 300.888 128.618 301.296 129.386C301.704 130.142 301.908 131.024 301.908 132.032C301.908 133.028 301.704 133.916 301.296 134.696C300.888 135.476 300.324 136.082 299.604 136.514C298.896 136.946 298.104 137.162 297.228 137.162C296.388 137.162 295.644 136.976 294.996 136.604C294.36 136.22 293.874 135.746 293.538 135.182V141.68H291.9V127.136H293.538V128.954ZM300.234 132.032C300.234 131.288 300.084 130.64 299.784 130.088C299.484 129.536 299.076 129.116 298.56 128.828C298.056 128.54 297.498 128.396 296.886 128.396C296.286 128.396 295.728 128.546 295.212 128.846C294.708 129.134 294.3 129.56 293.988 130.124C293.688 130.676 293.538 131.318 293.538 132.05C293.538 132.794 293.688 133.448 293.988 134.012C294.3 134.564 294.708 134.99 295.212 135.29C295.728 135.578 296.286 135.722 296.886 135.722C297.498 135.722 298.056 135.578 298.56 135.29C299.076 134.99 299.484 134.564 299.784 134.012C300.084 133.448 300.234 132.788 300.234 132.032ZM308.366 137.162C307.442 137.162 306.602 136.952 305.846 136.532C305.102 136.112 304.514 135.518 304.082 134.75C303.662 133.97 303.452 133.07 303.452 132.05C303.452 131.042 303.668 130.154 304.1 129.386C304.544 128.606 305.144 128.012 305.9 127.604C306.656 127.184 307.502 126.974 308.438 126.974C309.374 126.974 310.22 127.184 310.976 127.604C311.732 128.012 312.326 128.6 312.758 129.368C313.202 130.136 313.424 131.03 313.424 132.05C313.424 133.07 313.196 133.97 312.74 134.75C312.296 135.518 311.69 136.112 310.922 136.532C310.154 136.952 309.302 137.162 308.366 137.162ZM308.366 135.722C308.954 135.722 309.506 135.584 310.022 135.308C310.538 135.032 310.952 134.618 311.264 134.066C311.588 133.514 311.75 132.842 311.75 132.05C311.75 131.258 311.594 130.586 311.282 130.034C310.97 129.482 310.562 129.074 310.058 128.81C309.554 128.534 309.008 128.396 308.42 128.396C307.82 128.396 307.268 128.534 306.764 128.81C306.272 129.074 305.876 129.482 305.576 130.034C305.276 130.586 305.126 131.258 305.126 132.05C305.126 132.854 305.27 133.532 305.558 134.084C305.858 134.636 306.254 135.05 306.746 135.326C307.238 135.59 307.778 135.722 308.366 135.722ZM317.215 128.738C317.503 128.174 317.911 127.736 318.439 127.424C318.979 127.112 319.633 126.956 320.401 126.956V128.648H319.969C318.133 128.648 317.215 129.644 317.215 131.636V137H315.577V127.136H317.215V128.738ZM324.29 128.486V134.3C324.29 134.78 324.392 135.122 324.596 135.326C324.8 135.518 325.154 135.614 325.658 135.614H326.864V137H325.388C324.476 137 323.792 136.79 323.336 136.37C322.88 135.95 322.652 135.26 322.652 134.3V128.486H321.374V127.136H322.652V124.652H324.29V127.136H326.864V128.486H324.29ZM328.237 132.032C328.237 131.024 328.441 130.142 328.849 129.386C329.257 128.618 329.815 128.024 330.523 127.604C331.243 127.184 332.041 126.974 332.917 126.974C333.781 126.974 334.531 127.16 335.167 127.532C335.803 127.904 336.277 128.372 336.589 128.936V127.136H338.245V137H336.589V135.164C336.265 135.74 335.779 136.22 335.131 136.604C334.495 136.976 333.751 137.162 332.899 137.162C332.023 137.162 331.231 136.946 330.523 136.514C329.815 136.082 329.257 135.476 328.849 134.696C328.441 133.916 328.237 133.028 328.237 132.032ZM336.589 132.05C336.589 131.306 336.439 130.658 336.139 130.106C335.839 129.554 335.431 129.134 334.915 128.846C334.411 128.546 333.853 128.396 333.241 128.396C332.629 128.396 332.071 128.54 331.567 128.828C331.063 129.116 330.661 129.536 330.361 130.088C330.061 130.64 329.911 131.288 329.911 132.032C329.911 132.788 330.061 133.448 330.361 134.012C330.661 134.564 331.063 134.99 331.567 135.29C332.071 135.578 332.629 135.722 333.241 135.722C333.853 135.722 334.411 135.578 334.915 135.29C335.431 134.99 335.839 134.564 336.139 134.012C336.439 133.448 336.589 132.794 336.589 132.05ZM347.45 123.68V137H345.812V123.68H347.45ZM354.543 137.162C353.619 137.162 352.779 136.952 352.023 136.532C351.279 136.112 350.691 135.518 350.259 134.75C349.839 133.97 349.629 133.07 349.629 132.05C349.629 131.042 349.845 130.154 350.277 129.386C350.721 128.606 351.321 128.012 352.077 127.604C352.833 127.184 353.679 126.974 354.615 126.974C355.551 126.974 356.397 127.184 357.153 127.604C357.909 128.012 358.503 128.6 358.935 129.368C359.379 130.136 359.601 131.03 359.601 132.05C359.601 133.07 359.373 133.97 358.917 134.75C358.473 135.518 357.867 136.112 357.099 136.532C356.331 136.952 355.479 137.162 354.543 137.162ZM354.543 135.722C355.131 135.722 355.683 135.584 356.199 135.308C356.715 135.032 357.129 134.618 357.441 134.066C357.765 133.514 357.927 132.842 357.927 132.05C357.927 131.258 357.771 130.586 357.459 130.034C357.147 129.482 356.739 129.074 356.235 128.81C355.731 128.534 355.185 128.396 354.597 128.396C353.997 128.396 353.445 128.534 352.941 128.81C352.449 129.074 352.053 129.482 351.753 130.034C351.453 130.586 351.303 131.258 351.303 132.05C351.303 132.854 351.447 133.532 351.735 134.084C352.035 134.636 352.431 135.05 352.923 135.326C353.415 135.59 353.955 135.722 354.543 135.722ZM363.393 128.738C363.681 128.174 364.089 127.736 364.617 127.424C365.157 127.112 365.811 126.956 366.579 126.956V128.648H366.147C364.311 128.648 363.393 129.644 363.393 131.636V137H361.755V127.136H363.393V128.738ZM377.47 131.69C377.47 132.002 377.452 132.332 377.416 132.68H369.532C369.592 133.652 369.922 134.414 370.522 134.966C371.134 135.506 371.872 135.776 372.736 135.776C373.444 135.776 374.032 135.614 374.5 135.29C374.98 134.954 375.316 134.51 375.508 133.958H377.272C377.008 134.906 376.48 135.68 375.688 136.28C374.896 136.868 373.912 137.162 372.736 137.162C371.8 137.162 370.96 136.952 370.216 136.532C369.484 136.112 368.908 135.518 368.488 134.75C368.068 133.97 367.858 133.07 367.858 132.05C367.858 131.03 368.062 130.136 368.47 129.368C368.878 128.6 369.448 128.012 370.18 127.604C370.924 127.184 371.776 126.974 372.736 126.974C373.672 126.974 374.5 127.178 375.22 127.586C375.94 127.994 376.492 128.558 376.876 129.278C377.272 129.986 377.47 130.79 377.47 131.69ZM375.778 131.348C375.778 130.724 375.64 130.19 375.364 129.746C375.088 129.29 374.71 128.948 374.23 128.72C373.762 128.48 373.24 128.36 372.664 128.36C371.836 128.36 371.128 128.624 370.54 129.152C369.964 129.68 369.634 130.412 369.55 131.348H375.778ZM391.494 126.956C392.262 126.956 392.946 127.118 393.546 127.442C394.146 127.754 394.62 128.228 394.968 128.864C395.316 129.5 395.49 130.274 395.49 131.186V137H393.87V131.42C393.87 130.436 393.624 129.686 393.132 129.17C392.652 128.642 391.998 128.378 391.17 128.378C390.318 128.378 389.64 128.654 389.136 129.206C388.632 129.746 388.38 130.532 388.38 131.564V137H386.76V131.42C386.76 130.436 386.514 129.686 386.022 129.17C385.542 128.642 384.888 128.378 384.06 128.378C383.208 128.378 382.53 128.654 382.026 129.206C381.522 129.746 381.27 130.532 381.27 131.564V137H379.632V127.136H381.27V128.558C381.594 128.042 382.026 127.646 382.566 127.37C383.118 127.094 383.724 126.956 384.384 126.956C385.212 126.956 385.944 127.142 386.58 127.514C387.216 127.886 387.69 128.432 388.002 129.152C388.278 128.456 388.734 127.916 389.37 127.532C390.006 127.148 390.714 126.956 391.494 126.956ZM414.838 126.956C415.606 126.956 416.29 127.118 416.89 127.442C417.49 127.754 417.964 128.228 418.312 128.864C418.66 129.5 418.834 130.274 418.834 131.186V137H417.214V131.42C417.214 130.436 416.968 129.686 416.476 129.17C415.996 128.642 415.342 128.378 414.514 128.378C413.662 128.378 412.984 128.654 412.48 129.206C411.976 129.746 411.724 130.532 411.724 131.564V137H410.104V131.42C410.104 130.436 409.858 129.686 409.366 129.17C408.886 128.642 408.232 128.378 407.404 128.378C406.552 128.378 405.874 128.654 405.37 129.206C404.866 129.746 404.614 130.532 404.614 131.564V137H402.976V127.136H404.614V128.558C404.938 128.042 405.37 127.646 405.91 127.37C406.462 127.094 407.068 126.956 407.728 126.956C408.556 126.956 409.288 127.142 409.924 127.514C410.56 127.886 411.034 128.432 411.346 129.152C411.622 128.456 412.078 127.916 412.714 127.532C413.35 127.148 414.058 126.956 414.838 126.956ZM425.823 137.162C424.899 137.162 424.059 136.952 423.303 136.532C422.559 136.112 421.971 135.518 421.539 134.75C421.119 133.97 420.909 133.07 420.909 132.05C420.909 131.042 421.125 130.154 421.557 129.386C422.001 128.606 422.601 128.012 423.357 127.604C424.113 127.184 424.959 126.974 425.895 126.974C426.831 126.974 427.677 127.184 428.433 127.604C429.189 128.012 429.783 128.6 430.215 129.368C430.659 130.136 430.881 131.03 430.881 132.05C430.881 133.07 430.653 133.97 430.197 134.75C429.753 135.518 429.147 136.112 428.379 136.532C427.611 136.952 426.759 137.162 425.823 137.162ZM425.823 135.722C426.411 135.722 426.963 135.584 427.479 135.308C427.995 135.032 428.409 134.618 428.721 134.066C429.045 133.514 429.207 132.842 429.207 132.05C429.207 131.258 429.051 130.586 428.739 130.034C428.427 129.482 428.019 129.074 427.515 128.81C427.011 128.534 426.465 128.396 425.877 128.396C425.277 128.396 424.725 128.534 424.221 128.81C423.729 129.074 423.333 129.482 423.033 130.034C422.733 130.586 422.583 131.258 422.583 132.05C422.583 132.854 422.727 133.532 423.015 134.084C423.315 134.636 423.711 135.05 424.203 135.326C424.695 135.59 425.235 135.722 425.823 135.722ZM434.672 123.68V137H433.034V123.68H434.672ZM439.102 123.68V137H437.464V123.68H439.102ZM442.74 125.534C442.428 125.534 442.164 125.426 441.948 125.21C441.732 124.994 441.624 124.73 441.624 124.418C441.624 124.106 441.732 123.842 441.948 123.626C442.164 123.41 442.428 123.302 442.74 123.302C443.04 123.302 443.292 123.41 443.496 123.626C443.712 123.842 443.82 124.106 443.82 124.418C443.82 124.73 443.712 124.994 443.496 125.21C443.292 125.426 443.04 125.534 442.74 125.534ZM443.532 127.136V137H441.894V127.136H443.532ZM449.816 137.162C449.06 137.162 448.382 137.036 447.782 136.784C447.182 136.52 446.708 136.16 446.36 135.704C446.012 135.236 445.82 134.702 445.784 134.102H447.476C447.524 134.594 447.752 134.996 448.16 135.308C448.58 135.62 449.126 135.776 449.798 135.776C450.422 135.776 450.914 135.638 451.274 135.362C451.634 135.086 451.814 134.738 451.814 134.318C451.814 133.886 451.622 133.568 451.238 133.364C450.854 133.148 450.26 132.938 449.456 132.734C448.724 132.542 448.124 132.35 447.656 132.158C447.2 131.954 446.804 131.66 446.468 131.276C446.144 130.88 445.982 130.364 445.982 129.728C445.982 129.224 446.132 128.762 446.432 128.342C446.732 127.922 447.158 127.592 447.71 127.352C448.262 127.1 448.892 126.974 449.6 126.974C450.692 126.974 451.574 127.25 452.246 127.802C452.918 128.354 453.278 129.11 453.326 130.07H451.688C451.652 129.554 451.442 129.14 451.058 128.828C450.686 128.516 450.182 128.36 449.546 128.36C448.958 128.36 448.49 128.486 448.142 128.738C447.794 128.99 447.62 129.32 447.62 129.728C447.62 130.052 447.722 130.322 447.926 130.538C448.142 130.742 448.406 130.91 448.718 131.042C449.042 131.162 449.486 131.3 450.05 131.456C450.758 131.648 451.334 131.84 451.778 132.032C452.222 132.212 452.6 132.488 452.912 132.86C453.236 133.232 453.404 133.718 453.416 134.318C453.416 134.858 453.266 135.344 452.966 135.776C452.666 136.208 452.24 136.55 451.688 136.802C451.148 137.042 450.524 137.162 449.816 137.162ZM0.774 162.032C0.774 161.024 0.978 160.142 1.386 159.386C1.794 158.618 2.352 158.024 3.06 157.604C3.78 157.184 4.578 156.974 5.454 156.974C6.318 156.974 7.068 157.16 7.704 157.532C8.34 157.904 8.814 158.372 9.126 158.936V157.136H10.782V167H9.126V165.164C8.802 165.74 8.316 166.22 7.668 166.604C7.032 166.976 6.288 167.162 5.436 167.162C4.56 167.162 3.768 166.946 3.06 166.514C2.352 166.082 1.794 165.476 1.386 164.696C0.978 163.916 0.774 163.028 0.774 162.032ZM9.126 162.05C9.126 161.306 8.976 160.658 8.676 160.106C8.376 159.554 7.968 159.134 7.452 158.846C6.948 158.546 6.39 158.396 5.778 158.396C5.166 158.396 4.608 158.54 4.104 158.828C3.6 159.116 3.198 159.536 2.898 160.088C2.598 160.64 2.448 161.288 2.448 162.032C2.448 162.788 2.598 163.448 2.898 164.012C3.198 164.564 3.6 164.99 4.104 165.29C4.608 165.578 5.166 165.722 5.778 165.722C6.39 165.722 6.948 165.578 7.452 165.29C7.968 164.99 8.376 164.564 8.676 164.012C8.976 163.448 9.126 162.794 9.126 162.05ZM15.1881 153.68V167H13.5501V153.68H15.1881ZM18.8258 155.534C18.5138 155.534 18.2498 155.426 18.0338 155.21C17.8178 154.994 17.7098 154.73 17.7098 154.418C17.7098 154.106 17.8178 153.842 18.0338 153.626C18.2498 153.41 18.5138 153.302 18.8258 153.302C19.1258 153.302 19.3778 153.41 19.5818 153.626C19.7978 153.842 19.9058 154.106 19.9058 154.418C19.9058 154.73 19.7978 154.994 19.5818 155.21C19.3778 155.426 19.1258 155.534 18.8258 155.534ZM19.6178 157.136V167H17.9798V157.136H19.6178ZM21.7974 162.032C21.7974 161.024 22.0014 160.142 22.4094 159.386C22.8174 158.618 23.3754 158.024 24.0834 157.604C24.8034 157.184 25.6074 156.974 26.4954 156.974C27.3474 156.974 28.0914 157.166 28.7274 157.55C29.3754 157.922 29.8494 158.384 30.1494 158.936V157.136H31.8054V171.68H30.1494V165.182C29.8374 165.734 29.3574 166.202 28.7094 166.586C28.0614 166.97 27.3054 167.162 26.4414 167.162C25.5774 167.162 24.7914 166.946 24.0834 166.514C23.3754 166.082 22.8174 165.476 22.4094 164.696C22.0014 163.916 21.7974 163.028 21.7974 162.032ZM30.1494 162.05C30.1494 161.306 29.9994 160.658 29.6994 160.106C29.3994 159.554 28.9914 159.134 28.4754 158.846C27.9714 158.546 27.4134 158.396 26.8014 158.396C26.1894 158.396 25.6314 158.54 25.1274 158.828C24.6234 159.116 24.2214 159.536 23.9214 160.088C23.6214 160.64 23.4714 161.288 23.4714 162.032C23.4714 162.788 23.6214 163.448 23.9214 164.012C24.2214 164.564 24.6234 164.99 25.1274 165.29C25.6314 165.578 26.1894 165.722 26.8014 165.722C27.4134 165.722 27.9714 165.578 28.4754 165.29C28.9914 164.99 29.3994 164.564 29.6994 164.012C29.9994 163.448 30.1494 162.794 30.1494 162.05ZM43.3215 157.136V167H41.6835V165.542C41.3715 166.046 40.9335 166.442 40.3695 166.73C39.8175 167.006 39.2055 167.144 38.5335 167.144C37.7655 167.144 37.0755 166.988 36.4635 166.676C35.8515 166.352 35.3655 165.872 35.0055 165.236C34.6575 164.6 34.4835 163.826 34.4835 162.914V157.136H36.1035V162.698C36.1035 163.67 36.3495 164.42 36.8415 164.948C37.3335 165.464 38.0055 165.722 38.8575 165.722C39.7335 165.722 40.4235 165.452 40.9275 164.912C41.4315 164.372 41.6835 163.586 41.6835 162.554V157.136H43.3215ZM45.4752 162.032C45.4752 161.024 45.6792 160.142 46.0872 159.386C46.4952 158.618 47.0532 158.024 47.7612 157.604C48.4812 157.184 49.2792 156.974 50.1552 156.974C51.0192 156.974 51.7692 157.16 52.4052 157.532C53.0412 157.904 53.5152 158.372 53.8272 158.936V157.136H55.4832V167H53.8272V165.164C53.5032 165.74 53.0172 166.22 52.3692 166.604C51.7332 166.976 50.9892 167.162 50.1372 167.162C49.2612 167.162 48.4692 166.946 47.7612 166.514C47.0532 166.082 46.4952 165.476 46.0872 164.696C45.6792 163.916 45.4752 163.028 45.4752 162.032ZM53.8272 162.05C53.8272 161.306 53.6772 160.658 53.3772 160.106C53.0772 159.554 52.6692 159.134 52.1532 158.846C51.6492 158.546 51.0912 158.396 50.4792 158.396C49.8672 158.396 49.3092 158.54 48.8052 158.828C48.3012 159.116 47.8992 159.536 47.5992 160.088C47.2992 160.64 47.1492 161.288 47.1492 162.032C47.1492 162.788 47.2992 163.448 47.5992 164.012C47.8992 164.564 48.3012 164.99 48.8052 165.29C49.3092 165.578 49.8672 165.722 50.4792 165.722C51.0912 165.722 51.6492 165.578 52.1532 165.29C52.6692 164.99 53.0772 164.564 53.3772 164.012C53.6772 163.448 53.8272 162.794 53.8272 162.05ZM70.1132 156.956C70.8812 156.956 71.5652 157.118 72.1652 157.442C72.7652 157.754 73.2392 158.228 73.5872 158.864C73.9352 159.5 74.1092 160.274 74.1092 161.186V167H72.4892V161.42C72.4892 160.436 72.2432 159.686 71.7512 159.17C71.2712 158.642 70.6172 158.378 69.7892 158.378C68.9372 158.378 68.2592 158.654 67.7552 159.206C67.2512 159.746 66.9992 160.532 66.9992 161.564V167H65.3792V161.42C65.3792 160.436 65.1332 159.686 64.6412 159.17C64.1612 158.642 63.5072 158.378 62.6792 158.378C61.8272 158.378 61.1492 158.654 60.6452 159.206C60.1412 159.746 59.8892 160.532 59.8892 161.564V167H58.2512V157.136H59.8892V158.558C60.2132 158.042 60.6452 157.646 61.1852 157.37C61.7372 157.094 62.3432 156.956 63.0032 156.956C63.8312 156.956 64.5632 157.142 65.1992 157.514C65.8352 157.886 66.3092 158.432 66.6212 159.152C66.8972 158.456 67.3532 157.916 67.9892 157.532C68.6252 157.148 69.3332 156.956 70.1132 156.956ZM90.343 157.136V167H88.705V165.542C88.393 166.046 87.955 166.442 87.391 166.73C86.839 167.006 86.227 167.144 85.555 167.144C84.787 167.144 84.097 166.988 83.485 166.676C82.873 166.352 82.387 165.872 82.027 165.236C81.679 164.6 81.505 163.826 81.505 162.914V157.136H83.125V162.698C83.125 163.67 83.371 164.42 83.863 164.948C84.355 165.464 85.027 165.722 85.879 165.722C86.755 165.722 87.445 165.452 87.949 164.912C88.453 164.372 88.705 163.586 88.705 162.554V157.136H90.343ZM95.1067 158.486V164.3C95.1067 164.78 95.2087 165.122 95.4127 165.326C95.6167 165.518 95.9707 165.614 96.4747 165.614H97.6807V167H96.2047C95.2927 167 94.6087 166.79 94.1527 166.37C93.6967 165.95 93.4687 165.26 93.4687 164.3V158.486H92.1907V157.136H93.4687V154.652H95.1067V157.136H97.6807V158.486H95.1067ZM106.102 158.954C106.426 158.39 106.906 157.922 107.542 157.55C108.19 157.166 108.94 156.974 109.792 156.974C110.668 156.974 111.46 157.184 112.168 157.604C112.888 158.024 113.452 158.618 113.86 159.386C114.268 160.142 114.472 161.024 114.472 162.032C114.472 163.028 114.268 163.916 113.86 164.696C113.452 165.476 112.888 166.082 112.168 166.514C111.46 166.946 110.668 167.162 109.792 167.162C108.952 167.162 108.208 166.976 107.56 166.604C106.924 166.22 106.438 165.746 106.102 165.182V171.68H104.464V157.136H106.102V158.954ZM112.798 162.032C112.798 161.288 112.648 160.64 112.348 160.088C112.048 159.536 111.64 159.116 111.124 158.828C110.62 158.54 110.062 158.396 109.45 158.396C108.85 158.396 108.292 158.546 107.776 158.846C107.272 159.134 106.864 159.56 106.552 160.124C106.252 160.676 106.102 161.318 106.102 162.05C106.102 162.794 106.252 163.448 106.552 164.012C106.864 164.564 107.272 164.99 107.776 165.29C108.292 165.578 108.85 165.722 109.45 165.722C110.062 165.722 110.62 165.578 111.124 165.29C111.64 164.99 112.048 164.564 112.348 164.012C112.648 163.448 112.798 162.788 112.798 162.032ZM120.93 167.162C120.006 167.162 119.166 166.952 118.41 166.532C117.666 166.112 117.078 165.518 116.646 164.75C116.226 163.97 116.016 163.07 116.016 162.05C116.016 161.042 116.232 160.154 116.664 159.386C117.108 158.606 117.708 158.012 118.464 157.604C119.22 157.184 120.066 156.974 121.002 156.974C121.938 156.974 122.784 157.184 123.54 157.604C124.296 158.012 124.89 158.6 125.322 159.368C125.766 160.136 125.988 161.03 125.988 162.05C125.988 163.07 125.76 163.97 125.304 164.75C124.86 165.518 124.254 166.112 123.486 166.532C122.718 166.952 121.866 167.162 120.93 167.162ZM120.93 165.722C121.518 165.722 122.07 165.584 122.586 165.308C123.102 165.032 123.516 164.618 123.828 164.066C124.152 163.514 124.314 162.842 124.314 162.05C124.314 161.258 124.158 160.586 123.846 160.034C123.534 159.482 123.126 159.074 122.622 158.81C122.118 158.534 121.572 158.396 120.984 158.396C120.384 158.396 119.832 158.534 119.328 158.81C118.836 159.074 118.44 159.482 118.14 160.034C117.84 160.586 117.69 161.258 117.69 162.05C117.69 162.854 117.834 163.532 118.122 164.084C118.422 164.636 118.818 165.05 119.31 165.326C119.802 165.59 120.342 165.722 120.93 165.722ZM129.78 158.738C130.068 158.174 130.476 157.736 131.004 157.424C131.544 157.112 132.198 156.956 132.966 156.956V158.648H132.534C130.698 158.648 129.78 159.644 129.78 161.636V167H128.142V157.136H129.78V158.738ZM136.855 158.486V164.3C136.855 164.78 136.957 165.122 137.161 165.326C137.365 165.518 137.719 165.614 138.223 165.614H139.429V167H137.953C137.041 167 136.357 166.79 135.901 166.37C135.445 165.95 135.217 165.26 135.217 164.3V158.486H133.939V157.136H135.217V154.652H136.855V157.136H139.429V158.486H136.855ZM143.411 158.486V164.3C143.411 164.78 143.513 165.122 143.717 165.326C143.921 165.518 144.275 165.614 144.779 165.614H145.985V167H144.509C143.597 167 142.913 166.79 142.457 166.37C142.001 165.95 141.773 165.26 141.773 164.3V158.486H140.495V157.136H141.773V154.652H143.411V157.136H145.985V158.486H143.411ZM148.816 155.534C148.504 155.534 148.24 155.426 148.024 155.21C147.808 154.994 147.7 154.73 147.7 154.418C147.7 154.106 147.808 153.842 148.024 153.626C148.24 153.41 148.504 153.302 148.816 153.302C149.116 153.302 149.368 153.41 149.572 153.626C149.788 153.842 149.896 154.106 149.896 154.418C149.896 154.73 149.788 154.994 149.572 155.21C149.368 155.426 149.116 155.534 148.816 155.534ZM149.608 157.136V167H147.97V157.136H149.608ZM154.398 158.486V164.3C154.398 164.78 154.5 165.122 154.704 165.326C154.908 165.518 155.262 165.614 155.766 165.614H156.972V167H155.496C154.584 167 153.9 166.79 153.444 166.37C152.988 165.95 152.76 165.26 152.76 164.3V158.486H151.482V157.136H152.76V154.652H154.398V157.136H156.972V158.486H154.398ZM163.258 167.162C162.334 167.162 161.494 166.952 160.738 166.532C159.994 166.112 159.406 165.518 158.974 164.75C158.554 163.97 158.344 163.07 158.344 162.05C158.344 161.042 158.56 160.154 158.992 159.386C159.436 158.606 160.036 158.012 160.792 157.604C161.548 157.184 162.394 156.974 163.33 156.974C164.266 156.974 165.112 157.184 165.868 157.604C166.624 158.012 167.218 158.6 167.65 159.368C168.094 160.136 168.316 161.03 168.316 162.05C168.316 163.07 168.088 163.97 167.632 164.75C167.188 165.518 166.582 166.112 165.814 166.532C165.046 166.952 164.194 167.162 163.258 167.162ZM163.258 165.722C163.846 165.722 164.398 165.584 164.914 165.308C165.43 165.032 165.844 164.618 166.156 164.066C166.48 163.514 166.642 162.842 166.642 162.05C166.642 161.258 166.486 160.586 166.174 160.034C165.862 159.482 165.454 159.074 164.95 158.81C164.446 158.534 163.9 158.396 163.312 158.396C162.712 158.396 162.16 158.534 161.656 158.81C161.164 159.074 160.768 159.482 160.468 160.034C160.168 160.586 160.018 161.258 160.018 162.05C160.018 162.854 160.162 163.532 160.45 164.084C160.75 164.636 161.146 165.05 161.638 165.326C162.13 165.59 162.67 165.722 163.258 165.722ZM172.108 158.738C172.396 158.174 172.804 157.736 173.332 157.424C173.872 157.112 174.526 156.956 175.294 156.956V158.648H174.862C173.026 158.648 172.108 159.644 172.108 161.636V167H170.47V157.136H172.108V158.738Z" fill="white" fill-opacity="0.8"/>
<defs>
<linearGradient id="paint0_linear_1_141" x1="25.6122" y1="-1.1471e-05" x2="155.641" y2="48.9885" gradientUnits="userSpaceOnUse">
<stop stop-color="#F86CF8"/>
<stop offset="1" stop-color="#64CEF5"/>
</linearGradient>
</defs>
</svg>
